<svg xmlns="http://www.w3.org/2000/svg" width="18" height="18" viewBox="0 0 18 18"><g fill="none" fill-rule="evenodd"><path d="M0 0h18v18H0z"/><path fill="#0099DF" d="M9.027 13.3a5.223 5.223 0 0 0 3.3 1.164c2.862 0 5.182-2.278 5.182-5.09 0-2.81-2.32-5.088-5.183-5.088a5.218 5.218 0 0 0-3.3 1.165 5.046 5.046 0 0 1 1.882 3.925c0 1.58-.733 2.99-1.883 3.924z"/><path fill="#EB001B" d="M8.973 5.45a5.223 5.223 0 0 0-3.3-1.164C2.81 4.286.49 6.564.49 9.376c0 2.81 2.32 5.088 5.183 5.088a5.218 5.218 0 0 0 3.3-1.165 5.046 5.046 0 0 1-1.882-3.925c0-1.58.733-2.99 1.883-3.924z"/><path fill="#6C6BBD" d="M9 5.43a5.042 5.042 0 0 1 1.91 3.945A5.046 5.046 0 0 1 9 13.321a5.042 5.042 0 0 1-1.91-3.945c0-1.592.745-3.013 1.91-3.946z"/></g></svg>