<svg xmlns="http://www.w3.org/2000/svg" width="18" height="18" version="1" viewBox="0 0 18 18"><path fill="#FFF" d="M6.718 11.917h1.257l.786-4.831H7.504zm7.97-4.831c-.467 0-.581.36-.581.36l-1.875 4.47h1.311l.262-.717h1.599l.148.717h1.155L15.7 7.086h-1.012zm-.521 3.122l.661-1.808.372 1.808h-1.033zm-5.23.435l-.187 1.084s.561.273 1.42.273c.858 0 2.153-.445 2.153-1.654 0-1.256-1.755-1.373-1.755-1.919s1.225-.476 1.763-.179l.179-1.037S11.956 7 11.379 7c-.624 0-2.106.273-2.106 1.599 0 1.248 1.739 1.264 1.739 1.919s-1.56.538-2.075.125zM3.896 7.521s-.051-.435-.597-.435H1.318l-.024.082.034.008.025.006.074.02a11.673 11.673 0 0 1 .164.051l.073.024c.059.02.124.045.193.072l.065.027c.067.027.138.058.212.093.033.015.068.033.102.05a4.66 4.66 0 0 1 .3.16c.025.014.05.031.075.046l1.091 4.192h1.31l2.001-4.83H5.66l-1.199 3.322-.142-.716-.423-2.172z"/></svg>