<svg xmlns="http://www.w3.org/2000/svg" width="24" height="24" version="1" viewBox="0 0 24 24"><path fill="#0a1e32" d="M16 4a7.97 7.97 0 0 0-4 1.091A7.973 7.973 0 0 0 8 4c-4.411 0-8 3.589-8 8s3.589 8 8 8a7.973 7.973 0 0 0 4-1.091A7.973 7.973 0 0 0 16 20c4.411 0 8-3.589 8-8s-3.589-8-8-8zm0 15a6.991 6.991 0 0 1-3.076-.716 7.969 7.969 0 0 0 2.45-3.177l-.921-.389A6.986 6.986 0 0 1 12 17.736a6.985 6.985 0 0 1-2.45-3.011l-.921.39a7.977 7.977 0 0 0 2.447 3.169A6.988 6.988 0 0 1 8 19c-3.86 0-7-3.14-7-7s3.14-7 7-7c1.092 0 2.137.257 3.076.716a7.969 7.969 0 0 0-2.45 3.177l.921.389A6.986 6.986 0 0 1 12 6.264a6.997 6.997 0 0 1 2.451 3.012l.921-.39a7.963 7.963 0 0 0-2.448-3.169A6.975 6.975 0 0 1 16 5c3.86 0 7 3.14 7 7s-3.14 7-7 7z"/><path fill="#0a1e32" d="M20.94 15.711l-.004.049h.056l.004-.041.002-.01h-.058zm-7.39-3.985l.012-.034.018-.031.023-.027.03-.028.035-.023.039-.022.043-.017.049-.016.053-.012.057-.008.078-.005.072-.004.065-.002h.059l.052.002.049.004.043.003.041.004.04.006.037.006.035.006.035.006.036.004.035.006.039.004.039.001.141-.634-.022-.002-.023-.004-.026-.004-.027-.003-.031-.006-.037-.004-.04-.006-.045-.006-.049-.004-.056-.006-.063-.004-.068-.004-.079-.003-.084-.002-.094-.002h-.188l-.08.004-.078.003-.075.006-.07.008-.067.01-.064.012-.063.013-.059.016-.054.016-.053.019-.049.02-.047.023-.045.024-.041.025-.039.028-.038.029-.033.031-.031.034-.03.035-.027.037-.025.037-.022.041-.022.041-.017.045-.018.046-.014.048-.011.049-.012.051-.008.053-.008.055-.006.057-.005.092.002.086.009.078.016.073.023.064.028.061.033.055.037.051.041.045.045.043.047.037.051.033.053.031.055.03.055.025.055.024.056.023.055.022.055.021.051.02.051.019.049.022.045.021.041.022.037.023.033.026.028.027.021.032.016.031.01.037.002.039-.006.045-.012.043-.017.043-.022.044-.029.041-.04.035-.049.031-.064.022-.078.013-.085.004h-.082l-.082-.002-.08-.004-.08-.007-.077-.008-.074-.01-.071-.01-.066-.011-.063-.012-.059-.014-.052-.01-.045-.011-.042-.01-.033-.01-.027-.006-.122.615.049.017.047.018.047.014.047.013.051.014.051.01.055.01.059.007.062.008.071.006.074.004.084.004.092.002.1.002.11.002h.121l.088-.002.09-.006.094-.01.096-.015.096-.022.096-.029.094-.036.09-.043.086-.052.08-.061.073-.071.066-.082.057-.094.045-.105.035-.118.022-.131.01-.176-.01-.149-.03-.125-.045-.106-.058-.086-.071-.073-.08-.056-.084-.047-.09-.039-.094-.034-.092-.029-.088-.029-.085-.03-.078-.035-.066-.041-.057-.051-.028-.037-.021-.037-.014-.038-.008-.037v-.035zm2.613 1.554l-.025.01-.033.009-.043.01-.051.008-.055.004h-.096l-.033-.002-.032-.002-.031-.006-.027-.004-.028-.008-.023-.009-.024-.012-.019-.012-.018-.015-.013-.02-.012-.02-.008-.023-.004-.026v-.029l.004-.033.26-1.56.495.009.11-.624h-.483l.121-.685h-.787l-.523 3.061-.009.071-.006.065-.002.062.002.057.008.055.013.049.022.045.029.041.037.037.045.033.055.03.065.023.076.022.088.015.1.012.112.008h.211l.047-.006.045-.006.039-.006.037-.006.036-.006.033-.005.029-.006.028-.008.027-.008.024-.008.023-.008.022-.007.021-.01.022-.01.021-.01.02-.011.08-.535-.006.002zm-6.42-1.564l-.002-.106-.018-.1-.031-.092-.043-.084-.055-.076-.064-.069-.072-.063-.078-.055-.082-.047-.088-.041-.088-.033-.088-.025-.088-.022-.086-.011-.08-.008-.098-.002-.094-.002h-.266l-.082.002-.08.004-.079.004-.076.008-.074.01-.07.012-.068.014-.067.018-.063.022-.063.023-.059.027-.202.666.029-.018.041-.016.051-.016.061-.016.069-.014.072-.014.08-.012.084-.014.088-.01.09-.01.09-.008.09-.006.09-.006.088-.002.084-.002.08.002.033.004.033.006.033.008.031.01.029.014.029.016.025.016.025.02.023.023.02.023.02.025.016.027.014.029.01.031.006.033.004.035v.052l-.01.055-.014.047-.006.02h.002-.02l-.016-.002h-.02l-.021-.002h-.025l-.027-.002h-.063l-.031-.002h-.034l-.035-.002h-.131l-.037.002-.041.002-.043.004-.047.004-.049.004-.047.006-.047.004-.047.004-.043.006-.039.004-.033.004-.029.004h-.023l-.014.002h-.004l-.095.018-.094.023-.092.031-.09.039-.086.045-.082.053-.076.057-.072.065-.066.073-.061.076-.051.082-.045.088-.037.094-.025.1-.018.104-.008.11.002.061.004.063.008.065.012.063.018.065.022.063.027.061.033.059.039.059.047.053.053.051.063.045.07.041.08.037.088.031.1.024.076.012.078.006.08-.002.082-.006.082-.012.082-.016.082-.022.08-.025.076-.029.074-.031.07-.035.065-.037.061-.039.053-.041.047-.043.037-.043-.006.009-.007.023-.006.035-.008.041-.008.049-.008.053-.008.059-.008.059h.707l.112-.624.292-1.47.015-.116zm-.99.887l-.008.041-.008.043-.008.047-.01.049-.01.047-.009.045-.01.043-.01.029-.012.031-.015.032-.02.033-.023.033-.027.031-.031.033-.038.03-.041.03-.047.027-.053.023-.059.02-.064.018-.072.014-.076.008-.086.002-.047-.002-.049-.01-.045-.02-.043-.029-.035-.043-.023-.059-.014-.074.004-.096.01-.047.016-.045.02-.041.027-.037.029-.035.033-.031.035-.029.037-.027.037-.022.037-.022.037-.018.033-.014.031-.014.029-.01.023-.008.018-.004.031-.01.035-.01.041-.008.043-.008.045-.008.045-.006.047-.006.045-.004h.084l.035.002.033.004.026.006.02.01.012.012.002.016-.007.038zM5.775 10.24l-.906 2.194-.131-2.194H3.407l-.644 3.686h.765l.484-2.76h.031l.008.135.017.321.026.444.029.503.03.499.025.435.018.307.007.116h.858l1.139-2.76h.029l-.483 2.76h.765l.646-3.686zm12.397 1.431l.012.002.015.002h.016l.014.002.011.002.008.002h.004l.002-.012.008-.033.01-.051.015-.065.02-.072.021-.079.026-.078.029-.074.022-.055.025-.053.026-.053.027-.049.024-.041.019-.033.014-.022.004-.007h-.004l-.01-.004-.014-.002-.019-.004-.02-.004-.023-.002-.022-.004h-.019l-.087.006-.078.01-.072.015-.067.018-.062.023-.057.026-.055.031-.049.033-.049.038-.045.041-.041.043-.043.047-.041.049-.039.053-.041.054-.042.057.092-.503-.796-.01-.525 3.011h.797l.272-1.592.012-.062.013-.061.016-.061.02-.056.021-.057.028-.053.033-.051.037-.049.045-.043.051-.039.061-.035.066-.032.078-.025.089-.02.097-.011.11-.008zm2.701-.368l-.049-.049-.051-.045-.055-.043-.059-.041-.059-.037-.065-.033-.065-.031-.068-.029-.072-.025-.072-.022-.076-.02-.078-.016-.082-.012-.084-.008-.086-.006-.088-.002-.084.002-.084.004-.082.01-.08.01-.078.016-.076.018-.074.022-.072.023-.069.027-.068.029-.067.035-.065.035-.061.039-.059.043-.057.045-.055.049-.051.053-.049.053-.047.059-.043.059-.041.065-.039.065-.035.068-.031.072-.029.074-.025.076-.023.08-.02.082-.018.084-.014.088-.01.09-.006.094-.002.092.002.09.006.086.01.084.014.08.018.078.021.076.024.072.027.069.029.067.035.065.035.061.041.059.041.055.047.053.047.049.051.047.055.043.055.041.059.037.061.035.063.031.065.029.069.026.068.023.07.02.074.016.074.014.076.012.076.008.08.004.08.002.08-.002.08-.004.078-.008.078-.01.074-.014.074-.016.074-.02.07-.024.07-.025.067-.029.067-.031.065-.035.061-.037.061-.041.057-.045.055-.047.053-.051.051-.053.049-.057.045-.061.041-.063.041-.067.035-.071.035-.072.029-.076.027-.08.026-.082.019-.086.018-.09.014-.092.012-.096.006-.1.002-.082-.002-.082-.004-.08-.008-.076-.012-.076-.016-.074-.018-.072-.022-.068-.023-.069-.029-.065-.029-.065-.035-.061-.037-.059-.039-.055-.043-.055-.047-.05zm-.579.867l-.006.08-.01.084-.018.108-.02.1-.025.092-.029.084-.031.076-.037.07-.039.063-.041.055-.047.049-.049.041-.053.035-.055.027-.059.022-.061.014-.065.008-.067.002-.061-.004-.057-.008-.055-.016-.049-.022-.045-.027-.041-.035-.037-.041-.033-.049-.027-.057-.022-.063-.018-.068-.012-.078-.006-.086v-.092l.006-.102.012-.11.012-.065.014-.067.02-.067.024-.067.025-.067.031-.063.035-.063.041-.059.043-.055.049-.049.055-.043.059-.039.065-.029.068-.023.074-.014.08-.006h.065l.059.01.055.016.051.025.045.031.041.039.035.043.031.051.025.057.022.061.016.067.01.069.006.074v.081zm-7.875-.356l-.01-.086-.016-.082-.018-.076-.024-.072-.027-.067-.031-.063-.033-.057-.037-.055-.041-.049-.043-.045-.047-.041-.047-.039-.051-.033-.051-.031-.053-.028-.055-.023-.057-.022-.057-.018-.057-.016-.057-.014-.059-.012-.057-.008-.057-.006-.057-.004-.055-.004h-.052l-.117.004-.11.008-.106.014-.1.02-.094.023-.088.029-.084.033-.078.035-.074.041-.069.043-.065.047-.059.051-.057.051-.051.055-.047.057-.045.057-.039.059-.037.061-.033.061-.031.061-.027.061-.026.061-.021.059-.02.061-.016.059-.016.057-.014.055-.01.053-.01.051-.006.045-.006.047-.006.041-.01.117-.004.113v.106l.008.102.012.098.018.09.022.086.027.082.031.076.035.072.039.067.043.065.045.059.051.055.053.051.055.047.059.043.059.039.063.035.065.033.067.029.067.025.068.022.069.022.07.016.07.016.07.012.072.01.07.008.069.004.07.004h.163l.086-.002h.078l.07-.004.065-.002.061-.006.055-.006.051-.006.049-.01.045-.01.043-.012.043-.016.043-.016.041-.018.045-.021.045-.023.121-.695-.082.047-.08.043-.083.036-.078.029-.078.025-.078.02-.078.014-.076.012-.074.006-.076.004h-.072l-.074-.002-.072-.004-.072-.008-.07-.01-.07-.01-.059-.014-.059-.02-.055-.025-.053-.031-.049-.037-.045-.039-.043-.045-.037-.047-.033-.049-.027-.051-.023-.053-.016-.053-.012-.051-.004-.053.002-.049.008-.039h1.813l.031-.172.024-.121.018-.115.01-.11.006-.104v-.098l-.01-.092zm-.771.194l-.006.074h-1.018l.01-.051.014-.061.016-.059.02-.055.023-.051.027-.049.029-.045.031-.041.035-.039.037-.033.041-.029.043-.025.045-.022.047-.016.051-.01.051-.008h.055l.051.002.049.006.047.012.045.016.041.02.039.023.037.029.033.035.029.039.026.043.02.049.016.053.012.059.004.065v.069z"/></svg>