<?xml version="1.0" encoding="UTF-8"?>
<svg width="18px" height="18px" viewBox="0 0 18 18" version="1.1" xmlns="http://www.w3.org/2000/svg" xmlns:xlink="http://www.w3.org/1999/xlink">
    <!-- Generator: Sketch 46.2 (44496) - http://www.bohemiancoding.com/sketch -->
    <title>icon_tool-info_s_white</title>
    <desc>Created with Sketch.</desc>
    <defs></defs>
    <g id="Page-1" stroke="none" stroke-width="1" fill="none" fill-rule="evenodd">
        <g id="icon_tool-info_s_white" fill-rule="nonzero">
            <rect id="Rectangle-3" opacity="0.546535326" x="0" y="0" width="18" height="18"></rect>
            <g id="art" transform="translate(1.500000, 1.500000)" fill="#FFFFFF">
                <path d="M7.5,0 C3.364,0 0,3.364 0,7.5 C0,11.636 3.364,15 7.5,15 C11.636,15 15,11.636 15,7.5 C15,3.364 11.636,0 7.5,0 L7.5,0 Z M7.5,14 C3.916,14 1,11.084 1,7.5 C1,3.916 3.916,1 7.5,1 C11.084,1 14,3.916 14,7.5 C14,11.084 11.084,14 7.5,14 L7.5,14 Z" id="Shape"></path>
                <path d="M7.496,3.38333333 C7.02,3.38333333 6.625,3.752 6.625,4.19533333 C6.625,4.648 7.02,5.01666667 7.496,5.01666667 C7.981,5.01666667 8.375,4.648 8.375,4.19533333 C8.375,3.752 7.98,3.38333333 7.496,3.38333333 L7.496,3.38333333 Z" id="Shape"></path>
                <rect id="Rectangle-path" x="7" y="6.53333333" width="1" height="4.66666667"></rect>
            </g>
        </g>
    </g>
</svg>