<?xml version="1.0" encoding="UTF-8"?>
<svg width="24px" height="24px" viewBox="0 0 24 24" version="1.1" xmlns="http://www.w3.org/2000/svg" xmlns:xlink="http://www.w3.org/1999/xlink">
    <!-- Generator: Sketch 46.2 (44496) - http://www.bohemiancoding.com/sketch -->
    <title>icon_category-cash_s_white</title>
    <desc>Created with Sketch.</desc>
    <defs></defs>
    <g id="Page-1" stroke="none" stroke-width="1" fill="none" fill-rule="evenodd">
        <g id="icon_category-cash_s_white">
            <rect id="_ph_" opacity="0.100000001" x="0" y="0" width="24" height="24"></rect>
            <g id="art" transform="translate(0.000000, 5.000000)" fill-rule="nonzero" fill="#FFFFFF">
                <path d="M4,13 L23,13 L23,4 L4,4 L4,13 Z M3,3 L24,3 L24,14 L3,14 L3,3 Z M1,1 L1,10 L3,10 L3,11 L0,11 L0,0 L21,0 L21,3 L20,3 L20,1 L1,1 Z" id="Combined-Shape"></path>
                <path d="M13.5,10.9948059 C14.8807119,10.9948059 16,9.87551777 16,8.49480589 C16,7.11409402 14.8807119,5.99480589 13.5,5.99480589 C12.1192881,5.99480589 11,7.11409402 11,8.49480589 C11,9.87551777 12.1192881,10.9948059 13.5,10.9948059 Z" id="Oval-9" opacity="0.300000012"></path>
            </g>
        </g>
    </g>
</svg>