<svg xmlns="http://www.w3.org/2000/svg" xmlns:xlink="http://www.w3.org/1999/xlink" width="33" height="11" viewBox="0 0 33 11"><defs><path id="a" d="M19.36.067h1.167V8.4h-2.62V3.533c0-.12-.166-.157-.219-.049L15.534 7.89a.918.918 0 0 1-.826.51H12V.067h2.537c.046 0 .083.036.083.08v4.768c0 .208.288.27.377.082l2.08-4.41a.917.917 0 0 1 .83-.52h1.453zm-10.403 0h1.706V8.4h-2.56V3.594c0-.13-.181-.157-.219-.033L6.398 8.4H4.265L2.78 3.56c-.038-.124-.22-.097-.22.033V8.4H0V.067h3.025c.398 0 .748.263.86.647l1.261 4.35a.193.193 0 0 0 .37 0L6.78.715a.895.895 0 0 1 .858-.647h1.32zM24.049 3.96h5.745a2.889 2.889 0 0 1-2.68 1.779H24.05V8.4h-2.62V3.96h2.62z"/><path id="b" d="M21 .067c0 1.88 2.426 3.404 4.342 3.404h4.565c.038-.183.058-.373.058-.568 0-1.566-1.294-2.836-2.89-2.836H21z"/></defs><g fill="none" fill-rule="evenodd"><path d="M-1-4h40v24H-1z"/><g transform="translate(1 1)"><use fill="#269836" xlink:href="#a"/><path stroke="#FFF" d="M17.407 5.197L15.983 8.11c-.237.484-.733.79-1.275.79H11.5V-.433h3.037c.32 0 .583.258.583.58v3.417l1.504-3.19a1.417 1.417 0 0 1 1.283-.807h3.12V8.9h-3.62V5.197zm-9.803.98L6.767 8.9H3.896l-.109-.353-.728-2.37V8.9H-.5V-.433h3.525c.62 0 1.166.41 1.34 1.008l.966 3.334.967-3.334a1.395 1.395 0 0 1 1.34-1.008h3.525V8.9h-3.56V6.176zm16.945.063V8.9h-3.62V3.46h9.61l-.282.69a3.389 3.389 0 0 1-3.143 2.09H24.55z"/></g><g transform="translate(1 1)"><use fill="#1A89D6" xlink:href="#b"/><path stroke="#FFF" d="M20.5-.433h6.575c1.87 0 3.39 1.491 3.39 3.336 0 .226-.023.45-.068.67l-.083.398h-4.972c-2.33 0-4.842-1.829-4.842-3.904v-.5z"/></g></g></svg>