<svg xmlns="http://www.w3.org/2000/svg" width="24" height="24" viewBox="0 0 24 24"><g fill="none" fill-rule="evenodd" opacity=".75"><path d="M0 0h24v24H0z"/><path fill="#0A1E32" d="M20.5 23h-16C3.1 23 2 21.9 2 20.5v-12C2 7.7 2.7 7 3.5 7H8v1H3.5c-.3 0-.5.2-.5.5v12c0 .8.7 1.5 1.5 1.5h16c.8 0 1.5-.7 1.5-1.5v-12c0-.3-.2-.5-.5-.5H17V7h4.5c.8 0 1.5.7 1.5 1.5v12c0 1.4-1.1 2.5-2.5 2.5z"/><path fill="#0A1E32" d="M2.5 22v-6H10v.5c0 1.4 1.1 2.5 2.5 2.5s2.5-1.1 2.5-2.5V16h7.5v6h-20z" opacity=".2"/><path fill="#0A1E32" d="M8.1 4.4l.8.7L12 2v10.2h1V2l3.1 3.1.8-.7L12.5 0z"/></g></svg>