<?xml version="1.0" encoding="UTF-8"?>
<svg width="24px" height="24px" viewBox="0 0 24 24" version="1.1" xmlns="http://www.w3.org/2000/svg" xmlns:xlink="http://www.w3.org/1999/xlink">
    <!-- Generator: Sketch 46.2 (44496) - http://www.bohemiancoding.com/sketch -->
    <title>icon_category-vacation_m_white</title>
    <desc>Created with Sketch.</desc>
    <defs></defs>
    <g id="Page-1" stroke="none" stroke-width="1" fill="none" fill-rule="evenodd">
        <g id="icon_category-vacation_m_white">
            <rect id="_ph_" opacity="0.100000001" x="0" y="0" width="24" height="24"></rect>
            <g id="art" transform="translate(3.000000, 1.000000)" fill-rule="nonzero" fill="#FFFFFF">
                <path d="M7,2 L11,2 L11,1 L7,1 L7,2 Z M6,0 L12,0 L12,3 L6,3 L6,0 Z" id="Rectangle"></path>
                <rect id="Rectangle-3-Copy" opacity="0.300000012" x="3" y="20" width="3" height="2"></rect>
                <rect id="Rectangle-3-Copy-2" opacity="0.300000012" x="12" y="20" width="3" height="2"></rect>
                <path d="M2.5,21 C1.121,21 0,19.878 0,18.5 L0,4.5 C0,3.122 1.121,2 2.5,2 L15.5,2 C16.879,2 18,3.122 18,4.5 L18,18.5 C18,19.878 16.879,21 15.5,21 L2.5,21 Z M1,4.5 L1,18.5 C1,19.327 1.673,20 2.5,20 L15.5,20 C16.327,20 17,19.327 17,18.5 L17,4.5 C17,3.673 16.327,3 15.5,3 L2.5,3 C1.673,3 1,3.673 1,4.5 Z" id="Shape"></path>
                <polygon id="Combined-Shape" opacity="0.300000012" points="6 6 7 6 7 17 6 17"></polygon>
                <polygon id="Rectangle-4-Copy-3" opacity="0.300000012" points="11 6 12 6 12 17 11 17"></polygon>
            </g>
        </g>
    </g>
</svg>