<?xml version="1.0" encoding="UTF-8"?>
<svg width="24px" height="24px" viewBox="0 0 24 24" version="1.1" xmlns="http://www.w3.org/2000/svg" xmlns:xlink="http://www.w3.org/1999/xlink">
    <!-- Generator: Sketch 46.2 (44496) - http://www.bohemiancoding.com/sketch -->
    <title>icon_power_card__m__white</title>
    <desc>Created with Sketch.</desc>
    <defs></defs>
    <g id="Page-1" stroke="none" stroke-width="1" fill="none" fill-rule="evenodd">
        <g id="icon_power_card__m__white">
            <rect id="Rectangle" x="0" y="0" width="24" height="24"></rect>
            <g id="Group" transform="translate(2.000000, 2.000000)" fill-rule="nonzero" fill="#FFFFFF">
                <path d="M14.6,1.1 C14.4,1.6 14.2,2.2 13.9,3 C16.4,4.4 18.1,7 18.1,10 C18.1,14.4 14.5,18 10.1,18 C5.7,18 2.1,14.4 2.1,10 C2.1,6.9 3.8,4.3 6.3,2.9 L5.5,1.1 C2.2,2.7 0,6.1 0,10 C0,15.5 4.5,20 10,20 C15.5,20 20,15.5 20,10 C20,6.1 17.8,2.8 14.6,1.1 Z" id="Shape"></path>
                <rect id="Rectangle-2" x="9" y="0" width="2" height="10"></rect>
            </g>
        </g>
    </g>
</svg>