<svg xmlns="http://www.w3.org/2000/svg" width="24" height="24" viewBox="0 0 24 24"><g fill="none" fill-rule="evenodd" opacity=".75"><path d="M0 0h24v24H0z"/><path fill="#0A1E32" d="M20.5 23h-16C3.1 23 2 21.9 2 20.5v-12C2 7.7 2.7 7 3.5 7H6v1H3.5c-.3 0-.5.2-.5.5v12c0 .8.7 1.5 1.5 1.5h16c.8 0 1.5-.7 1.5-1.5v-12c0-.3-.2-.5-.5-.5H19V7h2.5c.8 0 1.5.7 1.5 1.5v12c0 1.4-1.1 2.5-2.5 2.5z"/><path fill="#0A1E32" d="M2.5 22v-6H10v.5c0 1.4 1.1 2.5 2.5 2.5s2.5-1.1 2.5-2.5V16h7.5v6h-20z" opacity=".2"/><path fill="#0A1E32" d="M13 10.8V0h-1v10.8L8.9 7.6l-.8.8 4.4 4.3 4.4-4.3-.8-.8z"/></g></svg>