<svg xmlns="http://www.w3.org/2000/svg" width="31" height="10" viewBox="0 0 31 10"><g fill="none" fill-rule="evenodd"><path d="M-1-4h40v24H-1z"/><path fill="#FFF" d="M10.952 9.833h2.505l1.567-9.66h-2.506zM26.835.173c-.93 0-1.157.72-1.157.72L21.94 9.834h2.612l.523-1.434h3.186l.294 1.434h2.301L28.85.174h-2.015zm-1.037 6.244L27.114 2.8l.74 3.616h-2.056zm-10.423.869l-.373 2.168s1.12.546 2.829.546 4.29-.889 4.29-3.308c0-2.512-3.498-2.745-3.498-3.838 0-1.092 2.44-.952 3.513-.358L22.494.42S21.39 0 20.24 0c-1.244 0-4.197.546-4.197 3.198 0 2.496 3.466 2.526 3.466 3.838.001 1.31-3.108 1.076-4.134.25zM5.329 1.043s-.102-.87-1.19-.87H.19L.144.337.21.352l.054.014c.037.01.09.023.146.04l.11.032.212.066.148.05c.118.04.247.088.386.143l.128.052c.134.055.276.117.423.185l.205.102a10.502 10.502 0 0 1 .599.32c.048.028.098.062.147.092L4.943 9.83h2.611L11.541.17H8.844l-2.39 6.644-.282-1.43-.843-4.34z"/></g></svg>