<svg xmlns="http://www.w3.org/2000/svg" width="24" height="24" viewBox="0 0 24 24"><g fill="none" fill-rule="evenodd"><path d="M0 0h24v24H0z"/><g fill="#0A1E32" fill-rule="nonzero"><path d="M3.5 8.5V21c0 1.378 1.122 2.5 2.5 2.5h12c1.378 0 2.5-1.122 2.5-2.5V8.5h-1V21c0 .827-.673 1.5-1.5 1.5H6c-.827 0-1.5-.673-1.5-1.5V8.5h-1zM2.5 6c0-.827.673-1.5 1.5-1.5h16c.827 0 1.5.673 1.5 1.5v2.5h1V6c0-1.378-1.122-2.5-2.5-2.5h-4.5V2c0-.827-.673-1.5-1.5-1.5h-4c-.827 0-1.5.673-1.5 1.5v1.5H4A2.503 2.503 0 0 0 1.5 6v2.5h1V6zm7-4a.5.5 0 0 1 .5-.5h4a.5.5 0 0 1 .5.5v1.5h-5V2z"/><path d="M8.5 9.5h2v9h-2v-9zm5 0h2v9h-2v-9z" opacity=".3"/></g></g></svg>