<?xml version="1.0" encoding="UTF-8"?>
<svg width="24px" height="24px" viewBox="0 0 24 24" version="1.1" xmlns="http://www.w3.org/2000/svg" xmlns:xlink="http://www.w3.org/1999/xlink">
    <!-- Generator: Sketch 46.2 (44496) - http://www.bohemiancoding.com/sketch -->
    <title>icon_category-salary_s_white</title>
    <desc>Created with Sketch.</desc>
    <defs></defs>
    <g id="Page-1" stroke="none" stroke-width="1" fill="none" fill-rule="evenodd">
        <g id="icon_category_salary__s__white">
            <rect id="_ph_" opacity="0.100000001" x="0" y="0" width="24" height="24"></rect>
            <g id="art" transform="translate(1.000000, 1.000000)" fill-rule="nonzero" fill="#FFFFFF">
                <path d="M11,17.5 C14.5898509,17.5 17.5,14.5898509 17.5,11 C17.5,7.41014913 14.5898509,4.5 11,4.5 C7.41014913,4.5 4.5,7.41014913 4.5,11 C4.5,14.5898509 7.41014913,17.5 11,17.5 Z M11,16.5 C7.96243388,16.5 5.5,14.0375661 5.5,11 C5.5,7.96243388 7.96243388,5.5 11,5.5 C14.0375661,5.5 16.5,7.96243388 16.5,11 C16.5,14.0375661 14.0375661,16.5 11,16.5 Z" id="Oval-10"></path>
                <path d="M18.6123187,0.657842237 C18.0579047,-0.116374297 17.3016224,-0.102009322 16.7109755,0.559772846 C16.3399145,0.975523049 16.0029475,1.65010632 15.6802881,2.52882664 C15.5040684,3.00873781 15.3435087,3.52030781 15.2012357,4.03153017 C15.1158665,4.33828293 15.0552751,4.57786765 15.0226512,4.71737332 L15.9963803,4.94508311 C16.0260215,4.81833168 16.0832697,4.59196648 16.1646238,4.29964077 C16.300223,3.81239902 16.453038,3.3255049 16.6190048,2.87351623 C16.9011509,2.10512859 17.1922984,1.52227265 17.457042,1.22564429 C17.6430109,1.01727807 17.6397961,1.01733913 17.7992823,1.24005507 C18.0351007,1.56936576 18.280744,2.2206371 18.5141912,3.20536759 L18.5854979,3.50615455 L18.886441,3.57679902 C19.9226309,3.82003791 20.58634,4.07751016 20.8903963,4.31950203 C21.0553463,4.45078215 21.055458,4.44970348 20.8346972,4.63931684 C20.5308036,4.90033375 19.9574918,5.18490898 19.2078432,5.46137218 C18.7561086,5.62796754 18.2694968,5.78152482 17.7825389,5.91791205 C17.490384,5.99973881 17.2641486,6.05736873 17.1374627,6.08723175 L17.3668994,7.06055535 C17.5062969,7.02769587 17.7457075,6.96670979 18.0522403,6.88085604 C18.5630952,6.73777574 19.0742962,6.576459 19.5538536,6.39960283 C20.4072971,6.08486107 21.0686931,5.75656345 21.4862605,5.39791112 C22.1442794,4.83273289 22.2201992,4.09980926 21.513123,3.53706258 C21.1050864,3.2123151 20.418121,2.93121406 19.4136798,2.67615865 C19.1727125,1.7356391 18.9097427,1.07318269 18.6123187,0.657842237 Z" id="Path-12-Copy-3"></path>
                <path d="M3.4372395,21.4002975 C3.99165355,22.174514 4.74793582,22.160149 5.33858271,21.4983669 C5.70964372,21.0826167 6.04661078,20.4080334 6.36927015,19.5293131 C6.54548986,19.0494019 6.70604955,18.5378319 6.84832257,18.0266095 C6.93369176,17.7198568 6.99428316,17.480272 7.02690703,17.3407664 L6.05317799,17.1130566 C6.02353674,17.239808 5.96628858,17.4661732 5.88493443,17.7584989 C5.74933521,18.2457407 5.5965202,18.7326348 5.43055343,19.1846235 C5.14840737,19.9530111 4.85725984,20.535867 4.59251621,20.8324954 C4.40654737,21.0408616 4.40976211,21.0408006 4.25027592,20.8180846 C4.01445757,20.4887739 3.76881427,19.8375026 3.53536707,18.8527721 L3.46406038,18.5519852 L3.1631172,18.4813407 C2.12692737,18.2381018 1.46321829,17.9806295 1.15916196,17.7386377 C0.994211992,17.6073576 0.994100258,17.6084362 1.21486103,17.4188229 C1.51875465,17.157806 2.09206649,16.8732307 2.84171507,16.5967675 C3.29344961,16.4301722 3.78006144,16.2766149 4.26701936,16.1402277 C4.55917421,16.0584009 4.78540963,16.000771 4.9120955,15.9709079 L4.68265884,14.9975844 C4.54326129,15.0304438 4.30385074,15.0914299 3.9973179,15.1772837 C3.48646301,15.320364 2.97526203,15.4816807 2.49570461,15.6585369 C1.64226113,15.9732786 0.980865167,16.3015762 0.563297737,16.6602286 C-0.0947211837,17.2254068 -0.170640915,17.9583304 0.536435289,18.5210771 C0.944471836,18.8458246 1.63143722,19.1269256 2.63587845,19.381981 C2.87684579,20.3225006 3.13981551,20.984957 3.4372395,21.4002975 Z" id="Path-12-Copy-4"></path>
                <rect id="Rectangle-43" opacity="0.300000012" transform="translate(10.997282, 10.997282) rotate(45.000000) translate(-10.997282, -10.997282) " x="4.997282" y="9.58306875" width="12" height="2.82842712"></rect>
            </g>
        </g>
    </g>
</svg>