<svg xmlns="http://www.w3.org/2000/svg" width="24" height="24" viewBox="0 0 24 24"><g fill="none" fill-rule="evenodd"><path d="M0 0h24v24H0z"/><path fill="#FFF" d="M3.75 4h10.109V3H3.75C2.785 3 2 3.785 2 4.75v15.5c0 .965.785 1.75 1.75 1.75h15.5c.965 0 1.75-.785 1.75-1.75V10.182h-1V20.25a.75.75 0 0 1-.75.75H3.75a.75.75 0 0 1-.75-.75V4.75A.75.75 0 0 1 3.75 4z"/><path fill="#FFF" d="M8 13.879V16h2.121l9.193-9.192-2.122-2.122zM18.606 3.273l1.414-1.415 2.122 2.122-1.414 1.414z" opacity=".4"/></g></svg>