<svg xmlns="http://www.w3.org/2000/svg" width="24" height="24" viewBox="0 0 24 24"><g fill="none" fill-rule="evenodd"><path d="M0 0h24v24H0"/><path fill="#0B1F35" fill-rule="nonzero" d="M2.5 17a.5.5 0 0 1-.5-.5v-12a.5.5 0 0 1 .5-.5h19a.5.5 0 0 1 .5.5V14h1V4.5A1.5 1.5 0 0 0 21.5 3h-19A1.5 1.5 0 0 0 1 4.5v12A1.5 1.5 0 0 0 2.5 18H5v-1H2.5z"/><path fill="#0B1F35" fill-rule="nonzero" d="M12 22v-6h1.077l1.886 4.557h.07L16.923 16H18v6h-.855v-4.333h-.058l-1.74 4.158h-.697l-1.738-4.158h-.058V22H12zm7.26-1.188c.415.26.89.403 1.38.416.76 0 1.116-.38 1.116-.855 0-.5-.297-.772-1.07-1.058-1.033-.368-1.52-.938-1.52-1.628 0-.926.75-1.687 1.984-1.687.582 0 1.093.166 1.413.356l-.26.76a2.247 2.247 0 0 0-1.177-.332c-.617 0-.962.356-.962.784 0 .475.344.69 1.092.974.998.38 1.51.88 1.51 1.735 0 1.01-.785 1.723-2.152 1.723-.63 0-1.21-.155-1.616-.392l.263-.796zm-12 0c.415.26.89.403 1.38.416.76 0 1.116-.38 1.116-.855 0-.5-.297-.772-1.07-1.058-1.033-.368-1.52-.938-1.52-1.628 0-.927.75-1.687 1.985-1.687.583 0 1.094.166 1.414.356l-.26.76a2.247 2.247 0 0 0-1.177-.332c-.617 0-.962.356-.962.784 0 .475.344.69 1.092.974.998.38 1.51.88 1.51 1.735 0 1.01-.785 1.723-2.152 1.723-.63 0-1.21-.155-1.615-.392l.26-.796z"/><path fill="#0B1F35" fill-rule="nonzero" d="M12 10.408L2.227 3.716l-.566.82L12 11.606l10.276-7.07-.71-.673" opacity=".4"/></g></svg>