<svg xmlns="http://www.w3.org/2000/svg" width="96" height="96" viewBox="0 0 96 96"><g fill="none" fill-rule="evenodd"><path d="M0 0h96v96H0z"/><path fill="#FFF" fill-rule="nonzero" d="M19.5 5a6.508 6.508 0 0 0-6.5 6.5v74c0 3.584 2.916 6.5 6.5 6.5h56c3.584 0 6.5-2.916 6.5-6.5V25.293L61.707 5H19.5zM81 85.5c0 3.032-2.467 5.5-5.5 5.5h-56a5.506 5.506 0 0 1-5.5-5.5v-74C14 8.468 16.467 6 19.5 6h41.793L81 25.707V85.5z"/><path fill="#FFF" fill-rule="nonzero" d="M26 44h40v7H26zm0-16h24v7H26z" opacity=".3"/><circle cx="33" cy="71" r="7" fill="#FFF" fill-rule="nonzero" opacity=".3"/><path fill="#FFF" fill-rule="nonzero" d="M61 25h20L61 5z" opacity=".3"/></g></svg>