<svg xmlns="http://www.w3.org/2000/svg" width="18" height="18" viewBox="0 0 18 18"><g fill="none" fill-rule="evenodd"><path d="M0 0h18v18H0z"/><path fill="#FFF" d="M2 15.5C2 16.878 3.122 18 4.5 18h10c1.378 0 2.5-1.122 2.5-2.5V6h-1v9.5c0 .827-.673 1.5-1.5 1.5h-10c-.827 0-1.5-.673-1.5-1.5V6H2v9.5zM3.5 3h12c.827 0 1.5.673 1.5 1.5V6h1V4.5C18 3.122 16.878 2 15.5 2H12v-.5c0-.827-.673-1.5-1.5-1.5h-2C7.673 0 7 .673 7 1.5V2H3.5A2.503 2.503 0 0 0 1 4.5V6h1V4.5C2 3.673 2.673 3 3.5 3zm5-2h2a.5.5 0 0 1 .5.5V2H8v-.5a.5.5 0 0 1 .5-.5z"/><path fill="#FFF" d="M6 8h2v6H6zm5 0h2v6h-2z" opacity=".3"/></g></svg>