<svg xmlns="http://www.w3.org/2000/svg" width="30" height="30" viewBox="0 0 30 30"><g fill="none" fill-rule="evenodd"><path d="M0 0h30v30H0z"/><path fill="#FFF" d="M4 25.465C4 27.415 5.57 29 7.5 29h16c1.93 0 3.5-1.585 3.5-3.535V12h-1v13.465C26 26.863 24.878 28 23.5 28h-16C6.122 28 5 26.863 5 25.465V12H4v13.465zM5.5 6h20C26.878 6 28 7.122 28 8.5V12h1V8.5C29 6.57 27.43 5 25.5 5H20V2.833C20 1.822 19.028 1 17.833 1h-4.667C11.972 1 11 1.822 11 2.833V5H5.5C3.57 5 2 6.57 2 8.5V12h1V8.5C3 7.122 4.122 6 5.5 6zm7.667-4h4.667c.632 0 1.166.382 1.166.833V5h-7V2.833c0-.451.534-.833 1.167-.833z"/><path fill="#FFF" d="M11 14h3v11h-3zm6 0h3v11h-3z" opacity=".3"/></g></svg>