<?xml version="1.0" encoding="UTF-8"?>
<svg width="25px" height="40px" viewBox="0 0 25 40" version="1.1" xmlns="http://www.w3.org/2000/svg" xmlns:xlink="http://www.w3.org/1999/xlink">
    <!-- Generator: Sketch 46.2 (44496) - http://www.bohemiancoding.com/sketch -->
    <title>color</title>
    <desc>Created with Sketch.</desc>
    <defs></defs>
    <g id="Page-1" stroke="none" stroke-width="1" fill="none" fill-rule="evenodd">
        <path d="M13.4847147,4.13513371 C12.7901787,2.48333465 12.4320721,1.24080024 12.0730985,0 C11.7141248,1.24080024 11.3560183,2.48333465 10.6614823,4.13513371 C9.96781338,5.78606568 8.93684798,7.84712938 7.68217436,10.0876799 C6.42663366,12.3282305 4.94825183,14.7482678 3.80543232,16.6298447 C2.66261282,18.5122887 1.85622273,19.8571392 1.27440794,21.1560342 C0.690858981,22.4549292 0.332752414,23.7104699 0.154132673,25.009365 C-0.02622124,26.3099941 -0.02622124,27.6531105 0.0422785634,28.7066202 C0.109044195,29.7601298 0.243442543,30.5222985 0.489695001,31.37291 C0.735947459,32.2243886 1.09405403,33.1643099 1.67760299,34.1285097 C2.25941777,35.0927094 3.06580786,36.0777193 3.82797656,36.7947995 C4.58927818,37.5118797 5.3063584,37.9601632 6.15870405,38.3850354 C7.01018262,38.8107747 7.99519245,39.2157039 8.91430374,39.4836335 C9.83254794,39.7524302 10.6840265,39.8868286 11.1999428,39.9492588 C11.7141248,40.0125561 11.8944787,40.002151 12.0730985,39.9934802 C12.2517182,40.002151 12.4320721,40.0125561 12.9462542,39.9492588 C13.4621704,39.8868286 14.313649,39.7524302 15.2318932,39.4836335 C16.1510045,39.2157039 17.1360143,38.8107747 17.9874929,38.3850354 C18.8398386,37.9601632 19.5569188,37.5118797 20.3182204,36.7947995 C21.0803891,36.0777193 21.8867792,35.0927094 22.468594,34.1285097 C23.0521429,33.1643099 23.4102495,32.2243886 23.6565019,31.37291 C23.9027544,30.5222985 24.0371528,29.7601298 24.1039184,28.7066202 C24.1724182,27.6531105 24.1724182,26.3099941 23.9920643,25.009365 C23.8134445,23.7104699 23.455338,22.4549292 22.871789,21.1560342 C22.2899742,19.8571392 21.4835841,18.5122887 20.3407646,16.6298447 C19.1979451,14.7482678 17.7195633,12.3282305 16.4640226,10.0876799 C15.209349,7.84712938 14.1783836,5.78606568 13.4847147,4.13513371 Z" id="color" fill="#000000" transform="translate(12.073098, 20.000000) scale(-1, 1) translate(-12.073098, -20.000000) "></path>
    </g>
</svg>