<svg xmlns="http://www.w3.org/2000/svg" width="18" height="24" viewBox="0 0 18 24"><g fill="none"><path d="M-3 0h24v24H-3z"/><path fill="#0F2338" d="M16.4 9H15V5.5c0-3-2.5-5.5-5.5-5.5h-1C5.5 0 3 2.5 3 5.5V9H1.6C.7 9 0 9.7 0 10.6v9.7c0 2 1.7 3.7 3.7 3.7h10.6c2 0 3.7-1.7 3.7-3.7v-9.7c0-.9-.7-1.6-1.6-1.6zM4 5.5C4 3 6 1 8.5 1h1C12 1 14 3 14 5.5V9H4V5.5zm13 14.8c0 1.5-1.2 2.7-2.7 2.7H3.7C2.2 23 1 21.8 1 20.3v-9.7c0-.3.3-.6.6-.6h14.8c.3 0 .6.3.6.6v9.7z"/><path fill="#0f2338" d="M9 13c-1.1 0-2 .9-2 2 0 .7.4 1.4 1 1.7V20h2v-3.3c.6-.3 1-1 1-1.7 0-1.1-.9-2-2-2z" opacity=".3"/></g></svg>